<svg version="1.1" id="Layer_1" xmlns="http://www.w3.org/2000/svg" xmlns:xlink="http://www.w3.org/1999/xlink" x="0px" y="0px"
	 width="100%" viewBox="0 0 738 737" enable-background="new 0 0 738 737" xml:space="preserve">
<path fill="#E8F0F3" opacity="1.000000" stroke="none" 
	d="
M1.999991,738.000000 
	C1.666649,737.833374 1.056171,737.684082 1.044435,737.497253 
	C0.961014,736.169128 1.000000,734.833313 1.000000,733.500000 
	C1.000000,489.333344 1.000000,245.166672 1.543238,1.324079 
	C2.136870,1.860219 2.187264,2.072280 2.232377,2.729715 
	C2.229316,247.686646 2.231537,492.198212 2.159282,737.029419 
	C2.056537,737.565979 2.028269,737.782959 1.999991,738.000000 
z"/>
<path fill="#E8F0F3" opacity="1.000000" stroke="none" 
	d="
M738.000000,1.000001 
	C738.333313,1.166668 738.943787,1.315925 738.955566,1.502795 
	C739.039001,2.830884 739.000000,4.166667 739.000000,5.500000 
	C739.000000,249.666672 739.000000,493.833344 738.456909,737.675049 
	C737.863525,737.137573 737.813171,736.924927 737.766907,736.266785 
	C737.769104,491.311371 737.767151,246.801468 737.840027,1.971612 
	C737.943298,1.434436 737.971680,1.217218 738.000000,1.000001 
z"/>
<path fill="#B2B8BA" opacity="1.000000" stroke="none" 
	d="
M737.542053,1.000000 
	C737.971680,1.217218 737.943298,1.434436 737.399597,1.873686 
	C735.388062,2.046506 733.891724,1.954218 732.395447,1.954178 
	C490.832275,1.947816 249.269119,1.947342 7.705951,1.961978 
	C5.883181,1.962088 4.060422,2.172255 2.237659,2.284342 
	C2.187264,2.072280 2.136870,1.860219 2.043238,1.324079 
	C247.028030,1.000000 492.056061,1.000000 737.542053,1.000000 
z"/>
<path fill="#B2B8BA" opacity="1.000000" stroke="none" 
	d="
M737.762756,736.712280 
	C737.813171,736.924927 737.863525,737.137573 737.956909,737.675049 
	C492.971954,738.000000 247.943939,738.000000 2.457953,738.000000 
	C2.028269,737.782959 2.056537,737.565979 2.599843,737.126892 
	C4.611210,736.953735 6.107541,737.045776 7.603873,737.045776 
	C249.167603,737.052124 490.731323,737.052612 732.295044,737.037842 
	C734.117615,737.037720 735.940186,736.825500 737.762756,736.712280 
z"/>
<path fill="#222322" opacity="1.000000" stroke="none" 
	d="
M737.766907,736.266785 
	C735.940186,736.825500 734.117615,737.037720 732.295044,737.037842 
	C490.731323,737.052612 249.167603,737.052124 7.603873,737.045776 
	C6.107541,737.045776 4.611210,736.953735 2.674318,736.807251 
	C2.231537,492.198212 2.229316,247.686646 2.232377,2.729715 
	C4.060422,2.172255 5.883181,1.962088 7.705951,1.961978 
	C249.269119,1.947342 490.832275,1.947816 732.395447,1.954178 
	C733.891724,1.954218 735.388062,2.046506 737.324768,2.193643 
	C737.767151,246.801468 737.769104,491.311371 737.766907,736.266785 
M587.500000,4.966159 
	C393.749603,4.966159 199.999207,4.966159 6.081242,4.966159 
	C6.081242,248.293198 6.081242,490.848511 6.081242,733.553467 
	C248.909882,733.553467 491.403961,733.553467 733.821655,733.553467 
	C733.821655,490.526367 733.821655,247.979797 733.821655,4.966098 
	C685.096436,4.966098 636.798218,4.966098 587.500000,4.966159 
z"/>
<path fill="#7A7468" opacity="1.000000" stroke="none" 
	d="
M588.000000,4.966128 
	C636.798218,4.966098 685.096436,4.966098 733.821655,4.966098 
	C733.821655,247.979797 733.821655,490.526367 733.821655,733.553467 
	C491.403961,733.553467 248.909882,733.553467 6.081242,733.553467 
	C6.081242,490.848511 6.081242,248.293198 6.081242,4.966159 
	C199.999207,4.966159 393.749603,4.966159 588.000000,4.966128 
M270.805420,59.044323 
	C201.313950,59.013924 131.822495,58.981407 62.331028,58.975754 
	C61.407085,58.975677 60.483120,59.315956 59.537514,59.501625 
	C59.537514,266.378723 59.537514,472.940277 59.537514,679.615723 
	C266.710815,679.615723 473.544098,679.615723 680.457153,679.615723 
	C680.457153,472.615417 680.457153,266.053772 680.457153,58.945900 
	C677.996765,58.945900 675.873718,58.945904 673.750610,58.945904 
	C553.096985,58.945904 432.443329,58.944988 311.789673,58.953159 
	C309.625458,58.953304 307.461212,59.062107 305.025024,58.204723 
	C305.025024,53.275089 305.025024,48.345455 305.025024,43.394424 
	C293.679596,43.394424 282.986481,43.394424 271.703003,43.394424 
	C271.703003,48.872826 271.703003,53.996555 270.805420,59.044323 
z"/>
<path fill="#21211D" opacity="1.000000" stroke="none" 
	d="
M305.296997,59.120209 
	C307.461212,59.062107 309.625458,58.953304 311.789673,58.953159 
	C432.443329,58.944988 553.096985,58.945904 673.750610,58.945904 
	C675.873718,58.945904 677.996765,58.945900 680.457153,58.945900 
	C680.457153,266.053772 680.457153,472.615417 680.457153,679.615723 
	C473.544098,679.615723 266.710815,679.615723 59.537514,679.615723 
	C59.537514,472.940277 59.537514,266.378723 59.537514,59.501625 
	C60.483120,59.315956 61.407085,58.975677 62.331028,58.975754 
	C131.822495,58.981407 201.313950,59.013924 271.476074,59.483807 
	C282.543213,60.025177 292.939606,60.147358 303.336304,60.180626 
	C303.988739,60.182713 304.643372,59.489788 305.296997,59.120209 
M62.640709,577.499939 
	C62.640709,610.563599 62.640709,643.627258 62.640709,676.661682 
	C267.954987,676.661682 472.511902,676.661682 676.973267,676.661682 
	C676.973267,471.679504 676.973267,266.996460 676.973267,62.337982 
	C472.037720,62.337982 267.480408,62.337982 62.640526,62.337982 
	C62.640526,233.924164 62.640526,405.212006 62.640709,577.499939 
z"/>
<path fill="#FDFDDB" opacity="1.000000" stroke="none" 
	d="
M305.161011,58.662464 
	C304.643372,59.489788 303.988739,60.182713 303.336304,60.180626 
	C292.939606,60.147358 282.543213,60.025177 271.924866,59.521790 
	C271.703003,53.996555 271.703003,48.872826 271.703003,43.394424 
	C282.986481,43.394424 293.679596,43.394424 305.025024,43.394424 
	C305.025024,48.345455 305.025024,53.275089 305.161011,58.662464 
M282.670380,55.626019 
	C283.825806,55.414478 284.981232,55.202938 286.818298,54.781754 
	C286.588409,53.526955 286.358521,52.272160 285.404663,50.935638 
	C284.556030,49.803772 283.707397,48.671906 282.007416,46.404583 
	C282.007416,49.808807 282.007416,51.877163 281.404022,54.044544 
	C281.109497,54.473022 280.814972,54.901501 280.520447,55.329983 
	C281.068695,55.516102 281.616913,55.702221 282.670380,55.626019 
M277.669800,54.282215 
	C277.444153,52.114586 277.218475,49.946953 276.992828,47.779320 
	C275.329315,48.778824 273.922302,50.449871 274.200623,51.763920 
	C274.465271,53.013390 276.491486,53.889744 277.669800,54.282215 
M298.885559,54.336090 
	C298.670013,53.128063 298.454498,51.920036 298.238953,50.712009 
	C297.797302,50.992489 297.355652,51.272972 296.914001,51.553452 
	C297.684662,52.646931 298.455353,53.740410 298.885559,54.336090 
M291.560547,54.403419 
	C291.560547,53.409969 291.560547,52.416523 291.560547,51.423073 
	C291.096130,51.512615 290.631714,51.602161 290.167297,51.691704 
	C290.507690,52.757812 290.848083,53.823921 291.560547,54.403419 
z"/>
<path fill="#D9D4AD" opacity="1.000000" stroke="none" 
	d="
M62.640617,576.999878 
	C62.640526,405.212006 62.640526,233.924164 62.640526,62.337982 
	C267.480408,62.337982 472.037720,62.337982 676.973267,62.337982 
	C676.973267,266.996460 676.973267,471.679504 676.973267,676.661682 
	C472.511902,676.661682 267.954987,676.661682 62.640709,676.661682 
	C62.640709,643.627258 62.640709,610.563599 62.640617,576.999878 
z"/>
<path fill="#FFED8F" opacity="1.000000" stroke="none" 
	d="
M282.007416,53.945518 
	C282.007416,51.877163 282.007416,49.808807 282.007416,46.404583 
	C283.707397,48.671906 284.556030,49.803772 285.721832,51.372757 
	C286.071533,52.870380 286.104095,53.930889 286.136658,54.991394 
	C284.981232,55.202938 283.825806,55.414478 282.385406,55.435070 
	C282.069427,54.811253 282.038422,54.378384 282.007416,53.945518 
z"/>
<path fill="#EBF6CB" opacity="1.000000" stroke="none" 
	d="
M277.706482,54.606186 
	C276.491486,53.889744 274.465271,53.013390 274.200623,51.763920 
	C273.922302,50.449871 275.329315,48.778824 276.992828,47.779320 
	C277.218475,49.946953 277.444153,52.114586 277.706482,54.606186 
z"/>
<path fill="#FFED8F" opacity="1.000000" stroke="none" 
	d="
M299.055786,54.584991 
	C298.455353,53.740410 297.684662,52.646931 296.914001,51.553452 
	C297.355652,51.272972 297.797302,50.992489 298.238953,50.712009 
	C298.454498,51.920036 298.670013,53.128063 299.055786,54.584991 
z"/>
<path fill="#74C2E1" opacity="1.000000" stroke="none" 
	d="
M291.374512,54.646725 
	C290.848083,53.823921 290.507690,52.757812 290.167297,51.691704 
	C290.631714,51.602161 291.096130,51.512615 291.560547,51.423073 
	C291.560547,52.416523 291.560547,53.409969 291.374512,54.646725 
z"/>
<path fill="#222322" opacity="1.000000" stroke="none" 
	d="
M286.477478,54.886574 
	C286.104095,53.930889 286.071533,52.870380 286.083801,51.413620 
	C286.358521,52.272160 286.588409,53.526955 286.477478,54.886574 
z"/>
<path fill="#EBF6CB" opacity="1.000000" stroke="none" 
	d="
M281.705719,53.995033 
	C282.038422,54.378384 282.069427,54.811253 282.132812,55.566231 
	C281.616913,55.702221 281.068695,55.516102 280.520447,55.329983 
	C280.814972,54.901501 281.109497,54.473022 281.705719,53.995033 
z"/>
</svg>