<svg width="699" height="223" viewBox="0 0 699 223" fill="none" xmlns="http://www.w3.org/2000/svg">
<path d="M219 12C245.4 12 271.8 12 299 12C299 32.46 299 52.92 299 74C302.96 74 306.92 74 311 74C311 78.95 311 83.9 311 89C312.903 89.0093 314.807 89.0187 316.768 89.0283C365.746 89.3036 414.686 90.378 463.64 91.8713C465.791 91.9369 467.943 92.0022 470.094 92.0675C473.599 92.174 477.105 92.281 480.611 92.3884C481.997 92.4309 483.383 92.4733 484.77 92.5156C492.253 92.7443 499.736 92.9823 507.218 93.2439C519.143 93.6573 531.06 94.0315 542.992 94.1467C548.152 94.2006 553.311 94.2932 558.47 94.3893C560.86 94.4232 563.249 94.4389 565.639 94.4335C582.212 94.4017 594.184 97.5866 608.669 105.708C611.828 107.459 615.057 109 618.324 110.539C620.445 111.568 622.566 112.596 624.688 113.625C637.799 119.972 650.965 126.201 664.145 132.403C664.89 132.753 665.634 133.104 666.401 133.465C667.791 134.119 669.181 134.773 670.572 135.426C674.409 137.231 678.215 139.089 682 141C682 141.33 682 141.66 682 142C461.56 142 241.12 142 14 142C18.0473 137.278 21.933 133.008 26.5 128.875C27.314 128.127 27.314 128.127 28.1445 127.363C29.7518 125.894 31.3617 124.435 33 123C33.8399 122.189 34.6798 121.377 35.5452 120.541C39.667 117.137 44.4332 115.942 49.4961 114.477C50.5207 114.167 51.5452 113.858 52.6008 113.539C55.8758 112.554 59.1563 111.589 62.4375 110.625C65.6402 109.668 68.8417 108.707 72.0429 107.744C74.1992 107.101 76.3582 106.467 78.5196 105.841C83.4945 104.396 88.3865 102.899 93.2197 101.03C111.85 94.0729 131.351 94.5804 150.983 94.187C155.735 94.0852 160.487 93.9473 165.238 93.8125C174.62 93.5525 184.002 93.3325 193.384 93.1251C201.842 92.938 210.299 92.7339 218.756 92.5287C221.317 92.4671 223.877 92.4072 226.438 92.3476C238.967 92.0516 251.48 91.5804 264 91C249.15 91 234.3 91 219 91C219 64.93 219 38.86 219 12Z" fill="#FEFEFE"/>
<path d="M218 157C304.79 157 391.58 157 481 157C481 174.82 481 192.64 481 211C394.21 211 307.42 211 218 211C218 193.18 218 175.36 218 157Z" fill="#FEFEFE"/>
<path d="M11 144C234.41 144 457.82 144 688 144C688 147.63 688 151.26 688 155C464.59 155 241.18 155 11 155C11 151.37 11 147.74 11 144Z" fill="white"/>
<path d="M400 12C426.73 12 453.46 12 481 12C481 38.07 481 64.14 481 91C458.877 91 436.897 90.8531 414.812 90C412.178 89.9031 409.543 89.8067 406.908 89.7109C400.605 89.4806 394.303 89.2426 388 89C388 84.05 388 79.1 388 74C391.96 74 395.92 74 400 74C400 53.54 400 33.08 400 12Z" fill="#FDFDFD"/>
<path d="M679 139C683.306 139.615 684.984 140.591 689 143C689 147.62 689 152.24 689 157C620.69 157 552.38 157 482 157C482 175.48 482 193.96 482 213C394.55 213 307.1 213 217 213C217 194.52 217 176.04 217 157C148.69 157 80.38 157 10 157C10 152.05 10 147.1 10 142C10.99 141.67 11.98 141.34 13 141C13 141.66 13 142.32 13 143C234.1 142.67 455.2 142.34 683 142C681.68 141.01 680.36 140.02 679 139ZM11 144C11 147.63 11 151.26 11 155C234.41 155 457.82 155 688 155C688 151.37 688 147.74 688 144C464.59 144 241.18 144 11 144ZM218 157C218 174.82 218 192.64 218 211C304.79 211 391.58 211 481 211C481 193.18 481 175.36 481 157C394.21 157 307.42 157 218 157Z" fill="#5F6061"/>
<path d="M312 56C336.75 56 361.5 56 387 56C387 66.89 387 77.78 387 89C362.25 89 337.5 89 312 89C312 78.11 312 67.22 312 56Z" fill="#FBFBFB"/>
<path d="M300 12C332.67 12 365.34 12 399 12C399 19.59 399 27.18 399 35C366.33 35 333.66 35 300 35C300 27.41 300 19.82 300 12Z" fill="white"/>
<path d="M300 37C332.67 37 365.34 37 399 37C399 48.88 399 60.76 399 73C395.37 73 391.74 73 388 73C388 67.06 388 61.12 388 55C362.59 55 337.18 55 311 55C311 60.94 311 66.88 311 73C307.37 73 303.74 73 300 73C300 61.12 300 49.24 300 37Z" fill="#FEFEFE"/>
<path d="M217 10C304.45 10 391.9 10 482 10C482 37.06 482 64.12 482 92C492.89 92 503.78 92 515 92C520.63 92.0998 526.245 92.2117 531.871 92.4023C533.235 92.4451 534.599 92.4876 535.962 92.5297C538.736 92.6164 541.51 92.7065 544.284 92.7996C547.807 92.9176 551.331 93.0277 554.855 93.1356C557.635 93.2213 560.416 93.3105 563.197 93.4008C565.116 93.4627 567.036 93.5223 568.956 93.5818C588.238 94.2382 588.238 94.2382 591 97C590.231 96.9752 589.462 96.9503 588.67 96.9247C569.763 96.3139 550.856 95.7043 531.949 95.0961C522.805 94.8019 513.661 94.5073 504.517 94.2117C496.526 93.9533 488.535 93.6959 480.544 93.4393C476.332 93.304 472.12 93.1683 467.908 93.0317C435.384 91.9773 402.862 90.9414 370.32 90.6836C368.021 90.6629 365.721 90.6419 363.421 90.6206C357.52 90.5668 351.618 90.5168 345.717 90.4678C339.634 90.4165 333.551 90.3614 327.469 90.3066C315.646 90.2008 303.823 90.099 292 90C292 89.67 292 89.34 292 89C298.27 89 304.54 89 311 89C311 84.05 311 79.1 311 74C307.04 74 303.08 74 299 74C299 53.54 299 33.08 299 12C272.6 12 246.2 12 219 12C219 38.07 219 64.14 219 91C236.325 90.505 236.325 90.505 254 90C260.899 89.9415 267.79 89.8976 274.688 89.9375C276.311 89.9426 277.934 89.9471 279.557 89.9512C283.371 89.9617 287.186 89.9787 291 90C291 90.33 291 90.66 291 91C284.488 91.2714 277.975 91.5371 271.463 91.7996C269.269 91.8885 267.076 91.9786 264.883 92.0701C250.072 92.6865 235.26 93.163 220.441 93.5352C219.144 93.5679 219.144 93.5679 217.821 93.6013C207.113 93.866 196.41 94.0378 185.699 94.1015C140.494 94.3789 100.753 96.2932 58.3184 113.102C43.8472 118.708 43.8472 118.708 39 117C45.1408 115.01 51.2895 113.046 57.4426 111.095C62.3582 109.532 67.2629 107.937 72.166 106.336C76.1139 105.051 80.0675 103.784 84.0221 102.52C85.9862 101.889 87.948 101.25 89.9073 100.604C101.166 96.8965 111.443 94.1428 123.343 94.0386C126.525 93.9924 129.702 93.8757 132.882 93.7556C139.635 93.5015 146.388 93.28 153.143 93.0701C156.639 92.9614 160.134 92.8468 163.63 92.7305C166.406 92.6391 169.184 92.5518 171.961 92.4654C173.847 92.4059 175.733 92.3427 177.619 92.2793C190.759 91.8842 203.832 92 217 92C217 64.94 217 37.88 217 10ZM300 12C300 19.59 300 27.18 300 35C332.67 35 365.34 35 399 35C399 27.41 399 19.82 399 12C366.33 12 333.66 12 300 12ZM400 12C400 32.46 400 52.92 400 74C396.04 74 392.08 74 388 74C388 78.95 388 83.9 388 89C395.619 89.2933 403.238 89.5775 410.858 89.8545C413.432 89.9492 416.006 90.0461 418.579 90.1455C439.415 90.948 460.125 91 481 91C481 64.93 481 38.86 481 12C454.27 12 427.54 12 400 12ZM300 37C300 48.88 300 60.76 300 73C303.63 73 307.26 73 311 73C311 67.06 311 61.12 311 55C336.41 55 361.82 55 388 55C388 60.94 388 66.88 388 73C391.63 73 395.26 73 399 73C399 61.12 399 49.24 399 37C366.33 37 333.66 37 300 37ZM312 56C312 66.89 312 77.78 312 89C336.75 89 361.5 89 387 89C387 78.11 387 67.22 387 56C362.25 56 337.5 56 312 56Z" fill="#5E5F5F"/>
<path d="M598 99C608.677 101.226 619.03 104.484 629.456 107.657C631.86 108.386 634.266 109.107 636.674 109.821C640.174 110.86 643.668 111.92 647.16 112.984C648.762 113.453 648.762 113.453 650.396 113.932C656.944 115.961 661.846 118.475 667 123C667.738 123.633 668.477 124.266 669.238 124.919C669.805 125.455 670.372 125.991 670.957 126.543C671.594 127.142 672.232 127.741 672.889 128.357C673.524 128.961 674.158 129.565 674.812 130.188C675.467 130.803 676.121 131.419 676.795 132.053C679.567 134.667 682.315 137.296 685 140C676.415 139.761 669.931 136.45 662.375 132.625C661.096 131.99 659.817 131.357 658.537 130.725C655.943 129.444 653.353 128.157 650.764 126.866C645.23 124.113 639.646 121.464 634.062 118.812C628.686 116.252 623.315 113.688 618 111C618 110.34 618 109.68 618 109C617.162 108.745 616.324 108.49 615.461 108.227C611.668 106.882 608.198 105.21 604.625 103.375C603.664 102.888 603.664 102.888 602.684 102.391C601.121 101.597 599.56 100.799 598 100C598 99.67 598 99.34 598 99Z" fill="#E5E5E5"/>
</svg>
